<?xml version="1.0" standalone="no"?>
<!DOCTYPE svg PUBLIC "-//W3C//DTD SVG 20010904//EN"
 "http://www.w3.org/TR/2001/REC-SVG-20010904/DTD/svg10.dtd">
<svg version="1.0" xmlns="http://www.w3.org/2000/svg"
 width="70.000000pt" height="70.000000pt" viewBox="0 0 70.000000 70.000000"
 preserveAspectRatio="xMidYMid meet">
<metadata>
Created by potrace 1.14, written by Peter Selinger 2001-2017
</metadata>
<g transform="translate(0.000000,70.000000) scale(0.100000,-0.100000)"
fill="#000000" stroke="none">
<path d="M212 686 c-22 -12 -62 -62 -62 -78 0 -21 32 -4 41 21 19 54 101 65
134 18 8 -12 15 -36 15 -54 0 -18 5 -33 10 -33 6 0 10 18 10 39 0 51 43 86 93
77 38 -7 72 -53 57 -76 -14 -21 -12 -30 4 -30 8 0 16 7 20 15 14 39 70 -5 64
-52 -1 -15 2 -27 7 -26 18 3 55 -31 59 -54 4 -16 -4 -30 -27 -48 l-32 -25 33
0 c17 0 32 -3 33 -7 0 -5 2 -17 4 -27 5 -27 -10 -52 -44 -72 -26 -15 -28 -20
-18 -38 14 -26 15 -36 5 -63 -5 -17 -4 -23 7 -23 17 0 29 41 22 73 -4 15 1 29
19 46 31 30 40 66 25 106 -6 17 -8 46 -5 63 5 26 1 36 -30 68 -20 21 -35 43
-32 50 6 17 -42 64 -65 64 -11 0 -19 4 -19 9 0 5 -14 23 -31 40 -37 37 -92 42
-131 12 -24 -19 -25 -19 -54 0 -33 22 -79 24 -112 5z"/>
<path d="M440 619 c0 -5 5 -7 10 -4 6 3 10 8 10 11 0 2 -4 4 -10 4 -5 0 -10
-5 -10 -11z"/>
<path d="M97 596 c-9 -10 -18 -23 -18 -29 -1 -7 -2 -18 -3 -25 0 -7 -14 -23
-31 -36 -26 -21 -30 -32 -33 -78 -8 -141 -8 -137 20 -159 22 -18 26 -28 21
-50 -8 -40 10 -36 29 6 15 35 15 35 -10 48 -15 6 -33 24 -42 39 -13 25 -13 30
4 62 14 26 16 38 7 54 -14 27 -14 25 9 52 16 18 26 22 55 17 38 -6 47 6 15 23
-22 12 -26 40 -9 57 6 6 9 17 7 23 -3 9 -9 8 -21 -4z"/>
<path d="M241 549 c-13 -17 -21 -32 -19 -35 10 -10 35 8 52 36 23 41 -1 40
-33 -1z"/>
<path d="M416 564 c-4 -9 -3 -22 2 -28 19 -25 0 -56 -34 -56 -19 0 -24 5 -24
24 0 14 -4 28 -10 31 -7 4 -10 -72 -10 -222 0 -193 -2 -232 -16 -251 -34 -49
-113 -51 -148 -5 -16 21 -17 31 -8 59 8 27 7 34 -3 34 -7 0 -16 -7 -19 -15 -5
-13 -10 -14 -28 -4 -13 7 -26 17 -30 23 -5 8 -11 7 -19 -1 -9 -9 -4 -16 22
-32 19 -12 37 -21 40 -21 4 0 9 -13 12 -30 15 -75 153 -94 198 -27 3 5 12 2
20 -6 37 -37 99 -48 142 -26 29 15 56 50 57 71 0 9 9 20 20 23 28 9 25 29 -2
21 -13 -3 -26 -6 -30 -6 -5 0 -8 -10 -8 -23 0 -64 -103 -96 -154 -48 -23 21
-26 33 -26 87 0 64 7 75 42 66 23 -6 30 -29 16 -52 -9 -14 -9 -22 1 -34 18
-21 38 -20 50 2 16 30 -28 95 -73 106 -32 8 -37 13 -34 35 3 25 6 26 61 25 45
-1 64 -6 80 -22 17 -17 18 -24 8 -36 -28 -33 16 -75 46 -45 14 14 -29 103 -54
114 -10 4 -45 10 -78 14 -56 6 -60 8 -63 34 -2 19 1 27 12 28 9 1 30 3 46 4
17 1 39 3 51 4 21 1 84 59 75 69 -3 2 1 11 9 18 17 18 10 40 -15 47 -25 6 -45
-17 -34 -40 20 -46 0 -64 -82 -72 l-64 -7 0 28 c0 29 3 32 51 42 29 6 67 68
61 99 -4 22 -48 23 -56 1z"/>
<path d="M146 409 c-25 -20 -37 -69 -16 -69 6 0 10 8 10 18 0 9 14 29 32 44
40 33 15 40 -26 7z"/>
<path d="M250 335 c-7 -14 -10 -28 -6 -32 9 -9 36 25 36 44 0 21 -16 15 -30
-12z"/>
<path d="M485 340 c3 -5 8 -10 11 -10 2 0 4 5 4 10 0 6 -5 10 -11 10 -5 0 -7
-4 -4 -10z"/>
<path d="M560 339 c0 -5 5 -7 10 -4 6 3 10 8 10 11 0 2 -4 4 -10 4 -5 0 -10
-5 -10 -11z"/>
<path d="M220 200 c0 -27 29 -70 46 -70 20 0 17 13 -6 33 -11 9 -20 26 -20 37
0 11 -4 20 -10 20 -5 0 -10 -9 -10 -20z"/>
<path d="M441 54 c0 -11 3 -14 6 -6 3 7 2 16 -1 19 -3 4 -6 -2 -5 -13z"/>
</g>
</svg>
