<?xml version="1.0" standalone="no"?>
<!DOCTYPE svg PUBLIC "-//W3C//DTD SVG 20010904//EN"
 "http://www.w3.org/TR/2001/REC-SVG-20010904/DTD/svg10.dtd">
<svg version="1.0" xmlns="http://www.w3.org/2000/svg"
 width="1187.000000pt" height="210.000000pt" viewBox="0 0 1187.000000 210.000000"
 preserveAspectRatio="xMidYMid meet">
<metadata>
Created by potrace 1.16, written by Peter Selinger 2001-2019
</metadata>
<g transform="translate(0.000000,210.000000) scale(0.100000,-0.100000)"
fill="#dcdcdc" stroke="none">
<path d="M5020 1833 c-81 -27 -139 -76 -170 -146 -9 -21 -25 -44 -35 -51 -24
-17 -14 -43 20 -52 32 -8 55 10 55 43 0 59 64 128 138 149 91 27 183 -2 241
-75 29 -37 31 -43 31 -129 0 -90 6 -106 38 -95 8 3 12 32 12 98 l0 94 48 49
c40 41 59 52 104 62 74 17 142 1 196 -45 64 -56 77 -117 41 -203 -12 -28 -12
-34 1 -42 20 -12 57 23 65 61 6 25 11 29 41 29 76 0 144 -64 144 -135 0 -24
-5 -56 -12 -70 -15 -32 -4 -43 53 -56 56 -13 85 -32 109 -72 43 -69 13 -154
-66 -188 -32 -14 -44 -25 -42 -37 3 -13 12 -16 38 -14 82 8 82 8 102 -28 15
-27 18 -49 16 -97 -5 -81 -39 -126 -126 -168 -34 -16 -62 -36 -62 -43 0 -7 12
-29 27 -48 34 -46 42 -118 18 -180 -20 -52 -9 -78 23 -58 46 28 61 159 26 226
-20 39 -18 45 25 67 71 37 130 132 131 213 0 42 -24 109 -53 149 -18 25 -18
28 -1 60 51 97 -3 215 -120 264 -32 14 -34 17 -29 54 14 102 -68 198 -185 217
-37 6 -43 11 -66 58 -45 93 -113 136 -222 144 -61 4 -80 1 -125 -20 -30 -14
-68 -39 -86 -56 -17 -18 -34 -32 -38 -32 -4 0 -21 14 -38 32 -49 49 -122 78
-192 77 -33 0 -67 -3 -75 -6z"/>
<path d="M9645 1660 c-156 -25 -290 -94 -406 -209 -131 -131 -205 -282 -235
-481 -37 -246 6 -428 132 -560 68 -71 115 -100 220 -136 279 -93 619 11 796
245 50 66 102 164 114 214 l6 27 -189 0 -190 0 -18 -40 c-38 -83 -132 -141
-242 -148 -96 -6 -137 3 -180 41 -57 50 -77 106 -76 212 3 289 151 497 363
513 131 9 203 -43 217 -156 l6 -52 184 0 c161 0 184 2 190 16 3 9 1 56 -5 103
-27 203 -153 342 -359 396 -72 19 -249 27 -328 15z"/>
<path d="M285 1628 c3 -13 19 -133 35 -268 17 -135 55 -431 85 -658 30 -228
55 -420 55 -428 0 -12 32 -14 183 -14 l182 0 74 158 c254 538 294 621 301 617
4 -3 11 -31 15 -62 3 -32 26 -202 51 -378 24 -176 44 -323 44 -327 0 -5 83 -8
184 -8 183 0 185 0 192 23 4 12 39 92 79 177 40 85 100 214 133 285 33 72 90
195 127 275 37 80 92 199 122 265 31 66 80 171 109 234 30 63 54 118 54 122 0
5 -93 9 -207 9 l-208 0 -84 -218 c-246 -638 -260 -672 -262 -632 0 8 -19 202
-42 430 l-42 415 -166 3 -165 2 -169 -392 c-170 -397 -204 -473 -210 -466 -2
1 -13 172 -24 378 -12 206 -24 399 -27 428 l-5 52 -210 0 -209 0 5 -22z"/>
<path d="M2440 1643 c0 -9 -219 -1332 -225 -1361 l-5 -22 190 0 c104 0 190 4
190 8 0 10 218 1318 226 1355 l6 27 -191 0 c-105 0 -191 -3 -191 -7z"/>
<path d="M3000 1642 c0 -10 -218 -1315 -226 -1354 l-6 -28 189 0 189 0 40 228
39 227 66 3 66 3 84 -230 84 -231 203 0 c111 0 202 3 202 6 0 6 -68 188 -145
389 -41 108 -44 121 -29 130 129 77 195 144 241 242 59 127 68 302 20 405 -33
74 -76 119 -145 156 -106 57 -150 62 -529 62 -189 0 -343 -4 -343 -8z m564
-308 c57 -20 86 -60 86 -119 0 -66 -18 -111 -59 -148 -47 -42 -106 -57 -232
-57 -81 0 -90 2 -85 18 3 9 14 73 26 142 11 69 23 137 26 153 l6 27 92 0 c59
0 110 -6 140 -16z"/>
<path d="M6565 1638 c-6 -21 -45 -251 -45 -271 0 -16 16 -17 205 -17 189 0
205 -1 205 -17 0 -10 -40 -255 -88 -545 l-87 -528 185 0 186 0 90 543 89 542
211 3 211 2 23 137 c12 76 25 143 27 150 4 11 -112 13 -601 13 -477 0 -607 -3
-611 -12z"/>
<path d="M7811 968 c-62 -376 -114 -689 -117 -695 -3 -10 102 -13 499 -13
l503 0 22 138 c12 75 22 143 22 150 0 9 -69 12 -310 12 -170 0 -310 3 -310 8
0 9 29 180 35 209 l5 23 288 2 287 3 22 125 c12 69 22 137 22 153 l1 27 -285
0 -285 0 4 23 c3 12 10 56 16 97 6 41 13 85 16 98 l4 22 313 0 314 0 22 133
c12 72 25 140 27 150 5 16 -23 17 -499 17 l-504 0 -112 -682z"/>
<path d="M10595 1638 c-5 -17 -225 -1352 -225 -1367 0 -8 49 -11 187 -9 l188
3 42 264 c24 146 45 266 47 268 1 2 115 2 252 1 l250 -3 -43 -260 c-23 -143
-42 -263 -43 -267 0 -5 85 -8 188 -8 l188 0 112 677 c62 373 112 686 112 696
0 16 -16 17 -184 17 l-184 0 -6 -27 c-3 -16 -22 -127 -41 -248 -19 -121 -37
-230 -40 -242 l-5 -23 -250 0 c-231 0 -250 1 -250 18 0 9 18 125 40 256 22
132 40 246 40 253 0 19 -369 19 -375 1z"/>
<path d="M4658 1573 c-44 -48 -61 -91 -56 -145 5 -48 4 -49 -29 -63 -116 -49
-169 -167 -119 -264 17 -33 17 -34 -2 -61 -35 -47 -54 -119 -47 -177 10 -82
56 -143 151 -199 18 -11 18 -13 2 -47 -27 -56 -32 -101 -14 -116 23 -19 42 0
49 50 3 22 17 55 31 74 14 18 26 40 26 47 0 7 -28 27 -63 43 -43 21 -72 44
-96 75 -31 42 -33 48 -29 111 3 59 8 72 40 114 l37 47 -24 43 c-31 52 -32 102
-2 146 42 63 140 89 206 54 26 -13 30 -13 41 0 17 20 -2 42 -57 66 -42 18 -43
19 -43 66 0 49 16 83 54 114 23 19 16 49 -12 49 -10 0 -30 -12 -44 -27z"/>
<path d="M5526 1509 c-33 -26 -37 -86 -6 -114 11 -10 20 -30 20 -44 0 -59 -54
-94 -136 -89 l-49 3 -5 65 c-4 57 -8 65 -25 65 -20 0 -20 -8 -23 -595 l-3
-595 -27 -40 c-15 -22 -48 -53 -72 -70 -42 -28 -51 -30 -140 -30 -86 0 -99 3
-135 26 -51 34 -70 56 -90 102 -22 52 -19 94 11 144 27 46 25 63 -7 63 -17 0
-51 -41 -62 -75 -6 -17 -92 24 -127 60 -37 38 -64 45 -74 19 -10 -25 73 -99
134 -121 39 -14 52 -24 56 -43 23 -110 83 -182 181 -219 120 -45 251 -15 337
76 l40 43 42 -43 c87 -91 217 -121 335 -77 99 37 160 111 183 221 4 19 15 29
45 37 49 15 68 36 52 56 -10 12 -18 12 -54 1 -23 -7 -54 -16 -69 -19 -25 -6
-28 -11 -28 -47 0 -74 -34 -131 -105 -178 -36 -23 -49 -26 -135 -26 -89 0 -98
2 -140 30 -24 17 -57 48 -72 70 l-28 40 3 165 2 165 62 -1 c77 -1 110 -20 119
-69 5 -29 2 -41 -15 -59 -29 -30 -28 -88 1 -116 34 -31 81 -26 113 12 31 36
28 71 -9 104 -12 11 -26 35 -29 54 -8 38 -48 94 -80 112 -12 6 -53 14 -92 17
l-70 6 -3 83 -3 82 98 0 c169 0 266 -26 304 -80 30 -44 31 -65 4 -94 -73 -79
34 -188 110 -111 33 32 31 67 -5 108 -16 19 -30 42 -30 51 0 33 -41 96 -78
121 -53 35 -132 52 -276 61 l-127 7 3 81 3 81 135 7 c176 8 230 23 289 79 25
23 51 77 51 105 0 9 14 29 30 44 35 33 38 67 9 104 -16 20 -29 26 -60 26 -76
0 -106 -75 -52 -132 25 -26 25 -29 12 -65 -30 -77 -105 -104 -289 -107 l-125
-1 -3 76 -3 76 66 7 c36 4 75 10 88 15 36 14 76 61 89 105 6 22 23 53 36 68
35 38 34 84 -2 115 -34 28 -65 29 -100 2z"/>
<path d="M4842 1118 c-55 -26 -106 -87 -122 -142 -15 -54 -10 -81 13 -81 13 0
24 15 37 55 20 59 82 126 123 132 16 2 22 10 22 28 0 32 -19 34 -73 8z"/>
<path d="M4987 584 c-17 -17 -6 -93 21 -145 37 -74 113 -124 128 -84 4 10 -10
31 -39 58 -43 40 -60 76 -69 147 -3 24 -27 38 -41 24z"/>
</g>
</svg>
